<svg width="20" height="21" viewBox="0 0 20 21" fill="none" xmlns="http://www.w3.org/2000/svg">
<path fill-rule="evenodd" clip-rule="evenodd" d="M6.60766 5.27718C6.60766 3.39153 8.12923 1.85742 9.99997 1.85742C11.8709 1.85742 13.3923 3.39153 13.3923 5.27718V7.04886C13.3923 8.93465 11.8709 10.4688 9.99997 10.4688C8.12923 10.4688 6.60766 8.93465 6.60766 7.04886V5.27718ZM12.5922 11.0299C14.6587 11.6758 16.395 13.0591 17.4812 14.9251C17.5063 14.9678 17.5063 15.0208 17.4812 15.0637C15.9393 17.7122 13.0725 19.3574 9.99981 19.3574C6.92723 19.3574 4.06063 17.7122 2.51865 15.0637C2.49378 15.021 2.49378 14.9679 2.51865 14.9252C3.60451 13.0593 5.34066 11.676 7.40738 11.0299C7.45502 11.0149 7.50725 11.0276 7.5428 11.0632C8.34102 11.8564 9.68369 12.7386 10.0024 12.9439C10.3011 12.7639 11.4955 12.0185 12.4568 11.0632C12.4925 11.0276 12.5443 11.0149 12.5922 11.0299ZM14.4677 16.0782C14.5424 16.0782 14.6137 16.0205 14.6137 15.9451V15.1233C14.6137 15.0478 14.5424 14.984 14.4677 14.984H13.5398C13.4648 14.984 13.3923 14.9253 13.3923 14.8497V13.8881C13.3923 13.8126 13.3431 13.7531 13.2684 13.7531H12.4521C12.3772 13.7531 12.3067 13.8126 12.3067 13.8881V14.8469C12.3067 14.9225 12.2556 14.9841 12.1807 14.9841H11.2223C11.1475 14.9841 11.0855 15.045 11.0855 15.1205V15.9451C11.0855 16.0204 11.1475 16.0782 11.2223 16.0782H12.1807C12.2556 16.0782 12.3067 16.1432 12.307 16.2186V17.1764C12.307 17.2517 12.3775 17.3092 12.4524 17.3092H13.2775C13.3524 17.3092 13.3924 17.2517 13.3924 17.1764V16.2186C13.3924 16.143 13.4741 16.0782 13.5489 16.0782H14.4677Z" fill="#858F9B"/>
</svg>
