<svg width="385" height="321" viewBox="0 0 385 321" fill="none" xmlns="http://www.w3.org/2000/svg">
<g clip-path="url(#clip0_3184_258613)">
<path d="M135.866 145.356H134.882V249.18H135.866V145.356Z" fill="#E0E0E0"/>
<path d="M206.212 145.356H205.229V249.18H206.212V145.356Z" fill="#E0E0E0"/>
<path d="M276.558 145.356H275.575V249.18H276.558V145.356Z" fill="#E0E0E0"/>
<path d="M81.877 132.555H65.0189V135.255H81.877V132.555Z" fill="#D9D9D9"/>
<path d="M88.9205 137.561H65.0189V140.261H88.9205V137.561Z" fill="#D9D9D9"/>
<path d="M233.099 124.724H213.309V127.424H233.099V124.724Z" fill="#D9D9D9"/>
<path d="M225.966 129.73H213.309V132.43H225.966V129.73Z" fill="#D9D9D9"/>
<path d="M225.573 135.38H213.309V138.08H225.573V135.38Z" fill="#D9D9D9"/>
<path d="M227.593 140.386H213.309V143.086H227.593V140.386Z" fill="#D9D9D9"/>
<path d="M294.417 132.555H276.558V135.255H294.417V132.555Z" fill="#D9D9D9"/>
<path d="M290.842 137.561H276.558V140.261H290.842V137.561Z" fill="#D9D9D9"/>
<path d="M146.556 255.312H135.365V258.924H146.556V255.312Z" fill="#B8B8B8"/>
<path d="M217.403 255.312H206.212V258.924H217.403V255.312Z" fill="#B8B8B8"/>
<path d="M287.749 255.312H276.558V258.924H287.749V255.312Z" fill="#B8B8B8"/>
<g opacity="0.43">
<path opacity="0.43" d="M322.037 218.321C300.102 218.321 281.027 208.827 261.13 198.94C236.585 186.728 211.199 174.106 177.376 177.557C155.781 179.756 142.23 188.552 130.27 196.329C119.437 203.356 109.211 209.542 95.3384 210.061C72.9206 210.919 65.1619 201.354 65.0189 200.764V194.631C65.0547 194.738 69.9351 205.466 95.3026 205.341C107.799 205.269 117.023 199.297 127.696 192.36C140.102 184.315 154.172 175.179 176.893 172.854C212.075 169.261 238.087 182.187 263.222 194.703C289.537 207.79 314.654 220.055 346.404 209.417V214.459C337.376 217.516 330.135 218.321 322.037 218.321Z" fill="url(#paint0_linear_3184_258613)"/>
</g>
<g opacity="0.22">
<path opacity="0.22" d="M190.337 217.141C174.14 217.141 161.287 206.252 148.719 195.579C139.191 187.497 129.287 179.219 117.863 175.143C83.0032 162.699 65.1798 185.423 65.0189 185.62V178.701C65.2156 178.468 68.3798 174.338 77.5865 170.387C85.9708 166.793 100.022 163.933 119.401 170.673C131.682 174.946 141.89 183.6 151.758 191.967C171.763 208.934 189.05 223.595 219.065 200.638C241.805 183.26 263.222 166.686 284.317 160.625C304.947 154.707 326.435 159.034 346.565 179.166L346.422 185.441C303.678 142.496 267.262 169.708 221.944 204.375C209.93 213.583 199.579 217.141 190.337 217.141Z" fill="url(#paint1_linear_3184_258613)"/>
</g>
<path d="M313.313 109.098C313.313 109.08 313.295 109.044 313.295 109.026C302.766 72.2849 276.469 40.8893 240.16 24.7267C233.939 21.9376 227.414 19.6133 220.639 17.7896C203.673 13.2305 186.601 12.1935 170.172 14.2317C170.154 14.2317 170.136 14.2317 170.136 14.2317H170.118C159.07 15.6084 148.308 18.3796 138.082 22.4203C138.064 22.4203 138.047 22.4382 138.029 22.4382C100.469 37.2062 70.1675 69.013 58.8692 110.975C39.9195 181.418 81.6266 253.864 152.044 272.798C188.192 282.524 224.875 276.267 254.587 258.334L260.129 266.04L286.265 247.213L279.955 238.453C295.704 222.665 307.646 202.677 313.849 179.595C320.285 155.619 319.695 131.375 313.313 109.098ZM216.652 229.745C169.975 246.48 118.561 222.2 101.846 175.518C85.4345 129.694 108.514 79.3292 153.492 61.6647C154.35 61.325 155.209 61.0032 156.067 60.6993C162.431 58.4108 168.884 56.891 175.338 56.0865C191.856 54.0304 208.303 56.6765 222.98 63.2381C244.54 72.8749 262.292 90.9506 270.891 114.926C271.57 116.822 272.178 118.717 272.714 120.612C285.604 165.703 261.434 213.69 216.652 229.745Z" fill="#EDEDEF"/>
<path d="M339.324 101.624L313.295 109.044L272.696 120.612C272.16 118.717 271.534 116.822 270.873 114.926C262.274 90.9327 244.522 72.857 222.963 63.2381L240.142 24.7446L241.948 20.686L251.208 0C294.971 19.4703 326.649 57.338 339.324 101.624Z" fill="#77ADF9"/>
<path d="M241.966 20.686L240.16 24.7446L222.963 63.2381C208.286 56.6765 191.857 54.0304 175.32 56.0865L170.136 14.2496L169.6 9.86921C186.583 7.75949 204.245 8.83223 221.783 13.5523C228.79 15.4117 235.548 17.8075 241.966 20.686Z" fill="#397DE4"/>
<path d="M343.883 318.729H291.843L255.677 268.507L289.948 243.816L343.883 318.729Z" fill="#A6C7F9"/>
<path d="M180.344 82.1899C171.816 75.2528 162.359 84.8718 155.494 87.9827C148.63 91.0937 147.879 89.0554 136.831 87.3569C124.764 85.4975 120.384 90.3248 118.918 94.6873C118.596 95.5992 118.417 96.4931 118.328 97.3155C113.269 139.456 134.757 159.266 140.513 158.462C147.629 157.461 149.041 136.185 153.474 133.109C159.481 128.944 163.503 131.643 167.329 138.634C171.387 146.054 176.84 162.377 186.011 144.427C187.673 141.173 188.764 137.204 189.389 132.877C192.178 113.389 185.617 86.4987 180.344 82.1899Z" fill="#AEC3FF"/>
<path d="M189.532 112.799C188.102 98.442 183.919 85.1042 180.344 82.2078C171.816 75.2707 162.359 84.8718 155.494 88.0006C148.63 91.1116 147.879 89.0733 136.831 87.3748C124.764 85.5154 120.384 90.3428 118.918 94.7052C118.864 95.2952 118.793 95.8674 118.739 96.4574C115.11 136.417 135.633 155.208 141.264 154.421C148.397 153.402 149.81 132.126 154.225 129.051C160.232 124.885 164.254 127.585 168.08 134.575C172.138 141.995 177.59 158.319 186.761 140.368C187.888 138.151 188.746 135.612 189.389 132.859C190.283 126.619 190.212 119.593 189.532 112.799Z" fill="#F9FBFF"/>
<path d="M172.281 83.8705C169.564 84.2996 166.471 87.1602 170.851 91.1473C173.872 93.9185 176.232 100.963 178.949 100.534C181.666 100.123 182.131 92.0591 179.968 88.1794C177.966 84.6214 174.998 83.4593 172.281 83.8705Z" fill="white"/>
<path d="M190.033 120.075C189.961 117.644 189.801 115.212 189.55 112.817C182.113 115.91 175.249 117.626 168.956 118.305C165.81 118.645 162.806 118.717 159.928 118.592C141.926 117.715 129.394 108.168 121.886 100.087C120.724 98.8352 119.669 97.6194 118.757 96.4752C118.721 96.94 118.668 97.4228 118.632 97.8876C118.4 100.695 118.31 103.394 118.31 106.005C118.31 109.384 118.507 112.566 118.847 115.588C121.85 142.442 136.616 155.1 141.247 154.439C143.839 154.081 145.68 151.042 147.164 147.162C149.792 140.386 151.383 131.035 154.207 129.086C155.048 128.514 155.834 128.05 156.603 127.728C158.23 127.048 159.714 126.923 161.09 127.334C163.682 128.085 165.899 130.66 168.044 134.593C169.045 136.417 170.136 138.795 171.334 141.065C175.016 147.985 179.807 153.903 186.708 140.386C187.834 138.169 188.692 135.63 189.336 132.877C189.407 132.358 189.479 131.858 189.532 131.339C189.997 127.746 190.122 123.919 190.033 120.075Z" fill="#F5F8FF"/>
<path d="M142.033 138.688C129.412 142.979 121.85 121.327 118.865 115.552C121.868 142.406 136.634 155.065 141.264 154.403C143.857 154.046 145.698 151.006 147.182 147.126C149.81 140.35 151.401 131 154.225 129.051C155.066 128.461 155.852 128.014 156.621 127.692C158.248 127.013 159.731 126.887 161.108 127.299C149.542 126.583 150.4 135.845 142.033 138.688Z" fill="#EAF2FF"/>
<path d="M190.015 120.075C189.908 129.784 186.189 137.275 180.522 140.315C173.711 143.944 167.365 133.324 167.276 133.163C170.958 140.082 177.412 159.981 186.762 140.368C187.834 138.115 188.746 135.612 189.389 132.859C189.461 132.34 189.532 131.84 189.586 131.321C189.997 127.746 190.122 123.919 190.015 120.075Z" fill="#EAF2FF"/>
<path d="M176.947 103.126C176.947 103.126 176.947 103.108 176.947 103.126C176.947 103.144 176.893 103.359 176.804 103.663C176.893 103.394 176.929 103.198 176.947 103.126Z" fill="#D5DCD9"/>
<path d="M165.595 99.0319L165.881 97.7983L165.291 98.8889C165.22 99.014 165.077 99.0677 164.934 99.0319L163.718 98.7637L164.844 99.3716C164.951 99.4252 165.005 99.5325 164.987 99.6577L164.487 101.446L165.273 99.765C165.345 99.6756 165.452 99.6219 165.577 99.6219L166.596 99.8543L165.684 99.3537C165.613 99.2822 165.559 99.1392 165.595 99.0319Z" fill="white"/>
<path d="M183.472 138.545L184.866 136.131L182.954 138.044C182.721 138.259 182.382 138.294 182.113 138.133L179.754 136.81L181.738 138.813C181.917 138.992 181.97 139.26 181.863 139.474L179.682 142.907L182.417 139.903C182.614 139.743 182.9 139.707 183.132 139.796L185.152 140.923L183.544 139.296C183.383 139.081 183.365 138.777 183.472 138.545Z" fill="white"/>
<path d="M93.0678 63.1845H1.84131V122.453H93.0678V63.1845Z" fill="#89B8FF"/>
<path d="M25.3676 111.297C24.4558 111.297 23.1687 110.349 21.9173 108.74C20.8089 107.292 18.7709 104.074 17.8234 98.7637C16.9117 93.5609 17.2335 87.8038 18.8246 81.6892C18.9318 81.278 19.0748 80.8489 19.2715 80.4735C20.2726 78.471 22.6145 76.4507 28.1921 78.1134C29.6044 78.5246 30.6413 78.918 31.4815 79.2219C33.4837 79.9728 34.2346 80.2589 36.5228 79.5616C37.2737 79.3471 38.1318 78.9537 39.0614 78.5246C42.0111 77.1837 45.7116 75.5567 48.4826 78.5246C50.6814 80.8847 52.0401 93.6145 49.5194 102.465C48.9295 104.556 48.1608 106.273 47.2312 107.614C45.5686 110.027 44.1206 111.118 42.8334 110.957C40.9742 110.671 39.991 107.846 39.1686 105.307C38.972 104.753 38.8111 104.217 38.6323 103.77C37.8279 101.678 36.9876 100.516 35.9329 100.122C35.1284 99.8186 33.6804 99.7292 32.9295 100.283C32.1787 100.838 31.3206 102.894 30.391 104.95C28.9251 108.043 27.4592 111.297 25.3676 111.297ZM24.2234 78.4352C17.1262 79.8834 16.8223 101.392 22.3106 108.436C23.6514 110.153 24.7776 110.796 25.3497 110.796C27.1016 110.796 28.5497 107.578 29.8368 104.7C30.8379 102.483 31.8033 100.73 32.6971 100.033C33.6089 99.3179 35.0927 99.2285 36.0401 99.5861C37.2379 100.033 38.1854 101.303 39.0435 103.537C39.2044 104.002 39.401 104.539 39.5977 105.093C40.3485 107.346 41.4926 109.652 43.0479 109.867C44.1027 110.01 45.1396 109.169 46.6591 106.952C47.553 105.647 48.3753 104.306 48.9652 102.286C51.4144 93.7576 50.163 81.0813 48.0714 78.8286C45.5686 76.1288 42.2077 77.6307 39.258 78.9716C38.3463 79.3828 37.4524 79.7762 36.6658 80.0086C34.2167 80.7238 33.3586 80.4198 31.3027 79.6689C30.4804 79.3828 27.1731 77.8274 24.2234 78.4352Z" fill="white"/>
<path d="M43.1373 83.4772L43.03 83.3342L52.63 76.0217H72.1338V76.1826H52.6836L43.1373 83.4772Z" fill="white"/>
<path d="M72.116 106.97H52.63L52.5942 106.934L43.03 99.6219L43.1373 99.5146L52.6836 106.773H72.1338V106.97H72.116Z" fill="white"/>
<path d="M72.7059 91.5406H43.0836V91.7015H72.7059V91.5406Z" fill="white"/>
<path d="M71.812 88.1973H63.0701C62.9092 88.1973 62.7662 88.0542 62.7662 87.8933C62.7662 87.7324 62.9092 87.5894 63.0701 87.5894H71.812C71.9729 87.5894 72.1159 87.7324 72.1159 87.8933C72.1159 88.0542 71.9908 88.1973 71.812 88.1973Z" fill="white"/>
<path d="M71.812 89.4845H63.0701C62.9092 89.4845 62.7662 89.3414 62.7662 89.1805C62.7662 89.0196 62.9092 88.8766 63.0701 88.8766H71.812C71.9729 88.8766 72.1159 89.0196 72.1159 89.1805C72.1159 89.3057 71.9908 89.4845 71.812 89.4845Z" fill="white"/>
<path d="M71.812 73.6615H63.0701C62.9092 73.6615 62.7662 73.5185 62.7662 73.3576C62.7662 73.1967 62.9092 73.0536 63.0701 73.0536H71.812C71.9729 73.0536 72.1159 73.1967 72.1159 73.3576C72.1159 73.5185 71.9908 73.6615 71.812 73.6615Z" fill="white"/>
<path d="M71.812 74.931H63.0701C62.9092 74.931 62.7662 74.788 62.7662 74.6271C62.7662 74.4662 62.9092 74.3231 63.0701 74.3231H71.812C71.9729 74.3231 72.1159 74.4662 72.1159 74.6271C72.1159 74.8059 71.9908 74.931 71.812 74.931Z" fill="white"/>
<path d="M71.812 104.235H63.0701C62.9092 104.235 62.7662 104.092 62.7662 103.931C62.7662 103.77 62.9092 103.627 63.0701 103.627H71.812C71.9729 103.627 72.1159 103.77 72.1159 103.931C72.1159 104.092 71.9908 104.235 71.812 104.235Z" fill="white"/>
<path d="M71.812 105.522H63.0701C62.9092 105.522 62.7662 105.379 62.7662 105.218C62.7662 105.057 62.9092 104.914 63.0701 104.914H71.812C71.9729 104.914 72.1159 105.057 72.1159 105.218C72.1159 105.379 71.9908 105.522 71.812 105.522Z" fill="white"/>
<path d="M94.8556 124.259H0V61.3609H94.8556V124.259ZM3.61116 120.666H91.2623V64.9903H3.61116V120.666Z" fill="white"/>
<path d="M385.018 318.729H1.80554V320.982H385.018V318.729Z" fill="#B6D5FF" fill-opacity="0.29"/>
<path opacity="0.1" d="M56.2387 321.218C72.5568 321.218 85.7852 319.092 85.7852 316.471C85.7852 313.849 72.5568 311.724 56.2387 311.724C39.9206 311.724 26.6921 313.849 26.6921 316.471C26.6921 319.092 39.9206 321.218 56.2387 321.218Z" fill="#1A6DE3"/>
<path d="M84.8087 199.098C84.8087 199.098 83.614 198.931 83.614 197.19C83.614 195.449 82.7589 192.198 82.7589 192.198C82.7589 192.183 82.019 186.535 80.9971 185.638C79.9753 184.74 78.6623 179.468 78.6623 179.468C78.6623 179.468 78.4379 176.608 77.98 175.993C77.5222 175.377 76.9036 173.869 75.9909 171.719C75.0781 169.569 71.2726 168.079 71.2726 168.079C71.2726 168.079 64.3924 164.088 62.4426 162.787C62.2654 162.68 62.0998 162.555 61.9484 162.414C61.6087 161.968 60.129 161.959 60.129 161.959C59.9743 160.982 59.8258 159.86 59.7772 158.844C59.7772 158.734 59.7772 158.625 59.7621 158.516C61.9362 157.231 63.5738 155.204 64.3742 152.808C64.4106 152.693 64.4409 152.571 64.4742 152.456C64.6045 152.413 64.7244 152.344 64.8262 152.252C64.928 152.16 65.0095 152.048 65.0655 151.922C65.2414 151.531 65.2444 151.073 65.4628 150.709C65.7175 150.278 66.2026 150.048 66.5847 149.723C67.549 148.904 67.7976 147.524 67.7521 146.269C67.7218 145.253 67.5581 144.227 67.6218 143.217L67.6399 142.963C67.6581 142.811 67.6794 142.659 67.7067 142.514C67.8552 141.762 68.1797 141.052 68.3616 140.306C68.5436 139.56 68.5618 138.719 68.1372 138.076C67.5156 137.133 66.2208 136.945 65.0837 136.848C63.795 136.739 62.6427 136.881 61.818 135.811C61.432 135.251 60.9977 134.726 60.5201 134.243C60.3503 134.085 58.7008 133.078 58.7008 133.011C57.0908 132.265 55.2659 132.125 53.5611 132.617C52.706 132.866 51.8994 133.272 51.0321 133.475C49.1612 133.918 47.0083 133.439 45.4194 134.51C44.534 135.116 44.0033 136.081 43.506 137.021C43.1017 137.795 42.6913 138.569 42.2749 139.341C41.6048 140.612 40.9225 141.904 40.6405 143.311C40.5812 143.618 40.5447 143.928 40.5314 144.24V144.255C40.5314 144.367 40.5314 144.479 40.5314 144.591V144.734C40.5314 144.84 40.5314 144.943 40.5495 145.037C40.5677 145.131 40.5647 145.162 40.5738 145.225C40.5829 145.289 40.5981 145.432 40.6163 145.529C40.6345 145.626 40.6708 145.796 40.7072 145.929C40.7224 145.987 40.7436 146.041 40.7618 146.096C40.7921 146.199 40.8285 146.299 40.8679 146.399C40.8892 146.451 40.9104 146.505 40.9346 146.557C40.9801 146.663 41.0347 146.766 41.0893 146.86C41.1136 146.903 41.1317 146.942 41.156 146.981C41.2406 147.123 41.3338 147.258 41.435 147.388C42.0839 148.198 43.0391 148.713 43.7456 149.472C43.7456 149.502 43.7456 149.532 43.7456 149.56C43.7456 149.644 43.7456 149.726 43.7456 149.811C43.7831 151.502 44.233 153.159 45.0564 154.636C45.8798 156.114 47.0516 157.367 48.4699 158.289C48.4699 158.404 48.485 158.522 48.4911 158.637C48.5502 159.538 48.5391 160.441 48.4577 161.34C48.3343 161.194 48.1797 161.079 48.0054 161.001C47.8312 160.923 47.6417 160.886 47.451 160.891C47.3207 160.885 47.1902 160.896 47.0629 160.924L47.0356 160.903V160.93C46.3685 161.094 45.5467 161.789 44.7614 163.763C44.7614 163.763 42.372 166.457 40.5526 166.344C38.7332 166.232 34.1272 169.147 34.1272 169.147C34.1272 169.147 29.6333 172.065 28.6691 175.037C28.1301 176.723 27.4839 178.372 26.7345 179.975L21.1793 191.425L20.1544 200.509C20.1544 200.509 20.7215 204.549 20.6093 205.164C20.4971 205.78 22.9411 211.334 22.9411 211.334C22.9411 211.334 31.0161 225.525 34.3152 226.253L34.5517 226.086C34.6928 226.16 34.8426 226.216 34.9974 226.253L35.6767 225.774C35.7175 226.308 35.7002 226.845 35.6251 227.375C35.1703 228.777 35.7949 237.921 36.5894 239.714C37.3838 241.506 37.1018 265.009 37.1018 265.009L36.9897 267.084C36.9897 267.084 36.9897 267.151 37.0169 267.266L36.9897 267.757L37.0715 267.8C37.1565 268.458 37.1289 269.125 36.9897 269.774C36.7046 270.684 36.5894 273.256 36.5894 273.256C36.5894 273.256 34.3182 287.778 35.3947 290.696C36.4711 293.614 37.3869 296.811 37.3869 296.811C37.3869 296.811 38.524 300.45 37.4415 301.072C36.3589 301.694 33.2812 302.737 33.9149 304.254C34.491 305.655 36.6773 309.41 37.0018 309.959L36.9745 310.247L36.5287 315.079C36.6009 315.717 36.7739 316.339 37.0412 316.923C37.5294 317.975 38.4785 319.067 40.2827 318.949C40.5859 318.928 40.9377 318.891 41.2773 318.846C44.5794 318.403 48.6457 316.929 48.6457 316.929C48.4346 316.795 48.2411 316.635 48.0696 316.453C47.9073 316.295 47.7787 316.107 47.6916 315.898C47.6046 315.69 47.5609 315.466 47.5632 315.24C47.6117 314.36 45.9652 310.168 45.5558 309.137C45.4922 308.988 45.4588 308.904 45.4588 308.904C45.4588 308.904 49.2128 304.979 48.5881 301.5C48.5881 301.5 44.4339 299.073 45.8015 297.742C47.169 296.41 49.613 292.586 49.613 292.586C49.613 292.586 49.7252 278.285 49.613 276.15C49.496 274.668 49.5663 273.177 49.8223 271.712C49.8677 271.491 49.9223 271.276 49.9799 271.063C51.8712 271.346 53.7805 271.491 55.6928 271.497C56.3902 271.497 57.0997 271.497 57.8154 271.455C57.8154 271.657 57.8245 271.875 57.8426 272.11C58.0003 275.652 58.2945 281.864 58.534 284.172C58.8736 287.481 60.7506 296.398 60.7506 296.398C60.7506 296.398 57.1695 298.697 61.3753 304.363C61.3753 304.363 61.3753 306.416 61.0963 306.714C60.7985 307.685 60.5585 308.674 60.3776 309.674C60.2018 310.742 60.129 311.821 60.414 312.382C61.0963 313.723 65.1899 313.614 65.1899 313.614L65.2899 313.596C66.0627 313.516 66.8437 313.59 67.5876 313.815C68.3314 314.039 69.0233 314.409 69.6231 314.903C71.1786 316.152 77.0825 315.604 80.2785 315.206C81.5308 315.048 82.3677 314.903 82.3677 314.903C82.4083 314.761 82.4227 314.613 82.4102 314.466C82.3768 313.681 81.7613 311.958 77.5889 310.42C77.5889 310.42 73.6651 307.781 73.7197 305.482H73.6378H73.183C73.5135 305.464 73.7257 305.482 73.7257 305.482C73.7257 305.482 72.1884 299.871 72.8161 299.416C73.4437 298.961 71.5637 292.743 71.5637 292.743C71.5637 292.743 70.4873 282.31 70.4296 281.579C70.4321 280.952 70.5271 280.328 70.7117 279.729L70.4296 274.008C70.4296 274.008 70.3751 272.107 70.4296 271.488C70.4205 270.951 70.3769 270.415 70.2993 269.883C70.272 269.671 70.2447 269.45 70.2144 269.231C71.685 268.858 72.6402 268.512 72.6402 268.512L72.4704 248.601C73.7197 246.174 73.9501 240.851 73.9441 237.075C73.9441 234.649 73.8349 232.853 73.8349 232.853L75.5421 230.066C75.5421 230.066 75.9363 226.729 75.3116 225.998C75.0357 225.668 75.16 225.325 75.3874 225.043C75.5055 224.949 75.6302 224.864 75.7604 224.788C75.7604 224.788 75.7422 224.761 75.721 224.721C75.8402 224.622 75.9669 224.532 76.1 224.451C76.1 224.451 75.4936 223.511 76.0363 223.114C76.5458 223.46 77.0006 223.72 77.3463 223.933C77.322 224.154 77.2978 224.282 77.2978 224.282L77.4433 223.978C77.7769 224.166 77.98 224.282 77.98 224.282C77.98 224.282 80.6545 218.953 80.5969 218.167C80.5393 217.381 82.4163 214.072 82.4163 214.072C82.4163 214.072 82.6437 212.334 83.6686 211.607C84.6935 210.879 84.4631 205.604 84.4631 205.604C84.4631 205.604 84.7481 202.856 85.4303 201.734C86.1126 200.612 84.8087 199.098 84.8087 199.098ZM33.6359 196.76L33.6875 198.031C33.3843 197.542 33.1659 197.19 33.1659 197.19L33.6359 196.76Z" fill="url(#paint2_linear_3184_258613)"/>
<path d="M78.1259 221.98L77.4709 224.77C77.4709 224.77 72.2251 222.092 71.279 218.689C70.3329 215.286 72.8619 213.994 72.8619 213.994L77.7499 216.065L78.1259 221.98Z" fill="white"/>
<path opacity="0.1" d="M78.1259 221.98L77.4709 224.77C77.4709 224.77 72.2251 222.092 71.279 218.689C70.3329 215.286 72.8619 213.994 72.8619 213.994L77.7499 216.065L78.1259 221.98Z" fill="black"/>
<path d="M48.6855 316.947C48.6855 316.947 43.8338 318.73 40.4983 318.955C38.7275 319.073 37.7966 317.987 37.3175 316.941C37.0557 316.359 36.8869 315.74 36.8171 315.106L37.2508 310.299L37.4812 307.739L44.5676 305.898L45.5713 308.967L45.6653 309.201C46.0686 310.226 47.6848 314.396 47.6363 315.267C47.6343 315.49 47.6774 315.711 47.7628 315.916C47.8483 316.122 47.9744 316.309 48.1336 316.465C48.2963 316.648 48.4818 316.81 48.6855 316.947Z" fill="white"/>
<path d="M81.8248 314.503C81.837 314.648 81.8226 314.795 81.7824 314.936C81.7824 314.936 71.4059 316.668 69.2833 314.936C68.6849 314.43 67.9873 314.055 67.2353 313.835C66.4834 313.614 65.6936 313.554 64.9168 313.656C64.9168 313.656 60.9021 313.766 60.232 312.443C59.953 311.888 60.0258 310.811 60.1986 309.75C60.3749 308.755 60.6098 307.772 60.9021 306.805L61.0628 306.677L62.018 305.91L73.201 305.579H73.2859C73.2313 307.866 77.0823 310.49 77.0823 310.49C81.1729 312.006 81.7763 313.72 81.8248 314.503Z" fill="white"/>
<path opacity="0.1" d="M81.8252 314.502C81.8358 314.649 81.8204 314.795 81.7797 314.936C81.7797 314.936 71.4063 316.668 69.2837 314.936C68.6856 314.431 67.9885 314.056 67.2371 313.835C66.4857 313.615 65.6965 313.554 64.9202 313.656C64.9202 313.656 60.9024 313.765 60.2353 312.443C59.9564 311.885 60.0261 310.811 60.199 309.75C61.7454 309.904 64.1864 310.29 65.1446 311.209C66.594 312.607 69.0502 314.002 70.5572 314.111C71.7368 314.187 78.7929 314.412 81.8252 314.502Z" fill="black"/>
<path opacity="0.1" d="M48.6854 316.947C48.6854 316.947 43.8338 318.731 40.4983 318.955C38.7274 319.073 37.7965 317.988 37.3204 316.938C38.5546 317.354 40.2678 317.79 41.1684 317.39C42.2358 316.917 46.02 316.611 48.1426 316.48C48.3042 316.657 48.4864 316.814 48.6854 316.947Z" fill="black"/>
<path d="M55.8842 173.227C51.8816 171.671 46.7328 166.53 48.0185 164.127C48.304 163.521 48.4737 162.867 48.5188 162.198C48.6015 161.291 48.6137 160.378 48.5552 159.469C48.4651 157.979 48.2858 156.496 48.0185 155.028C48.0185 155.028 60.5145 155.31 59.7868 157.151C59.5745 157.691 59.5412 158.629 59.5988 159.678C59.6564 160.727 59.808 161.913 59.9657 162.917C60.184 164.294 60.4023 165.344 60.4023 165.344C60.4023 165.344 59.6382 166.414 59.1894 166.472C58.7406 166.53 61.6274 175.444 55.8842 173.227Z" fill="#F3C4B4"/>
<path opacity="0.1" d="M45.6558 309.201L45.5618 309.304C41.826 304.785 37.3079 310.417 37.3079 310.417L37.2412 310.299L37.4717 307.739L44.5581 305.898L45.5618 308.967L45.6558 309.201Z" fill="black"/>
<path opacity="0.1" d="M73.2888 305.898C73.2888 305.898 70.5598 305.84 69.1043 307.126C67.6488 308.412 60.6139 307.405 60.9171 307.126C61.0069 306.988 61.0611 306.83 61.0748 306.665L62.03 305.898L73.213 305.567C73.2555 305.771 73.2888 305.898 73.2888 305.898Z" fill="black"/>
<path d="M50.3041 270.408C50.1009 270.911 49.9465 271.432 49.8432 271.964C49.5903 273.422 49.5201 274.905 49.634 276.38C49.7462 278.503 49.634 292.731 49.634 292.731C49.634 292.731 47.2354 296.525 45.8982 297.863C44.561 299.201 48.6273 301.603 48.6273 301.603C49.2337 305.06 45.5586 308.967 45.5586 308.967C41.8228 304.448 37.3047 310.083 37.3047 310.083C37.3047 310.083 34.8486 305.837 34.2361 304.32C33.6235 302.804 36.6346 301.754 37.6929 301.139C38.7511 300.523 37.6413 296.892 37.6413 296.892C37.6413 296.892 36.7468 293.711 35.6855 290.808C34.6242 287.906 36.856 273.456 36.856 273.456C36.856 273.456 36.9712 270.89 37.2471 269.995C37.3863 269.35 37.414 268.685 37.329 268.03C37.3108 267.809 37.2896 267.624 37.2744 267.499C37.2592 267.375 37.2471 267.317 37.2471 267.317L37.2896 267.244L38.8057 264.418C38.8057 264.418 51.0319 268.628 50.3041 270.408Z" fill="#4061B8"/>
<path d="M73.2888 305.564C73.2888 305.564 70.5598 305.506 69.1043 306.777C67.6488 308.048 60.6139 307.056 60.9171 306.777C61.2203 306.498 61.1961 304.433 61.1961 304.433C57.0692 298.797 60.5896 296.51 60.5896 296.51C60.5896 296.51 58.746 287.639 58.4125 284.348C58.179 282.049 57.8909 275.87 57.7363 272.343C57.6695 270.827 57.6301 269.783 57.6301 269.783L61.002 269.104L61.4356 269.016L69.5682 267.384C69.5682 267.384 69.7926 268.901 69.9442 270.141C70.0198 270.671 70.0623 271.205 70.0716 271.739C70.017 272.346 70.0716 274.245 70.0716 274.245L70.3475 279.938C70.1672 280.535 70.0743 281.155 70.0716 281.779C70.1262 282.504 71.1844 292.883 71.1844 292.883C71.1844 292.883 73.025 299.076 72.3973 299.522C71.7697 299.968 73.2888 305.564 73.2888 305.564Z" fill="#4061B8"/>
<path opacity="0.1" d="M59.7868 157.151C59.5746 157.691 59.5412 158.629 59.5988 159.678C57.925 160.686 56.0009 161.202 54.0474 161.165C52.0939 161.129 50.1903 160.542 48.5553 159.472C48.4652 157.981 48.286 156.497 48.0186 155.028C48.0186 155.028 60.5146 155.304 59.7868 157.151Z" fill="black"/>
<path d="M64.6166 150.448C64.619 151.541 64.447 152.628 64.1071 153.666C63.3474 155.994 61.7896 157.978 59.709 159.267C57.6284 160.557 55.1589 161.07 52.7371 160.714C50.3153 160.359 48.097 159.159 46.4743 157.325C44.8517 155.492 43.9291 153.145 43.8697 150.697C43.8697 150.612 43.8697 150.533 43.8697 150.448C43.8461 149.071 44.0971 147.702 44.6079 146.422C45.1187 145.143 45.8792 143.977 46.8449 142.995C47.8107 142.012 48.9623 141.232 50.2328 140.699C51.5033 140.166 52.8671 139.892 54.2446 139.892C55.6222 139.892 56.986 140.166 58.2565 140.699C59.5269 141.232 60.6786 142.012 61.6443 142.995C62.6101 143.977 63.3705 145.143 63.8814 146.422C64.3922 147.702 64.6431 149.071 64.6196 150.448H64.6166Z" fill="#F3C4B4"/>
<path opacity="0.1" d="M55.8842 173.226C51.8816 171.67 46.7328 166.529 48.0185 164.127C48.304 163.521 48.4737 162.867 48.5188 162.198L53.9982 166.702L57.3882 169.483L59.9657 162.92C60.184 164.297 60.4023 165.346 60.4023 165.346C60.4023 165.346 59.6382 166.417 59.1894 166.475C58.7406 166.532 61.6274 175.443 55.8842 173.226Z" fill="black"/>
<path d="M70.0536 193.132L65.4779 270.02L59.5104 270.411L44.0579 225.828L46.5929 172.899L47.1265 161.716L53.9977 167.36L57.3908 170.142L60.044 163.387L64.9776 167.688L70.0536 193.132Z" fill="#4061B8"/>
<path opacity="0.1" d="M50.3045 270.408C50.1012 270.911 49.9469 271.432 49.8436 271.964C45.5013 271.293 41.284 269.976 37.3324 268.054L37.2505 268.012L37.2778 267.524L37.2929 267.269L38.8091 264.442C38.8091 264.442 51.0322 268.628 50.3045 270.408Z" fill="black"/>
<path opacity="0.1" d="M61.072 271.976C59.962 272.165 58.8424 272.293 57.7183 272.358C57.6516 270.842 57.6122 269.799 57.6122 269.799L60.9841 269.119L61.072 271.976Z" fill="black"/>
<path opacity="0.1" d="M69.9262 270.156C67.7702 270.718 64.4408 271.348 61.46 270.954L61.4176 269.031L69.5502 267.399C69.5502 267.399 69.7746 268.901 69.9262 270.156Z" fill="black"/>
<path opacity="0.1" d="M61.4057 271.306C48.9733 273.429 37.5871 267.342 37.5871 267.342L37.6963 265.279C37.6963 265.279 37.9783 241.897 37.1959 240.105C36.4136 238.312 35.8041 229.222 36.2468 227.827C36.6895 226.432 34.6306 205.51 34.6306 205.51L34.2971 197.018L22.0891 192.071L27.5472 180.691C28.2844 179.095 28.9185 177.454 29.4454 175.777C30.3945 172.823 34.8004 169.92 34.8004 169.92C34.8004 169.92 39.3185 167.021 41.1045 167.13C42.8906 167.239 45.2315 164.564 45.2315 164.564C46.9599 160.157 48.5245 162.153 48.5245 162.153C48.5245 162.362 48.5245 162.153 48.4396 162.805C47.8332 167.643 58.246 182.929 58.3946 183.199L59.3862 207.36L60.3899 237.936L61.4057 271.306Z" fill="black"/>
<path d="M61.0719 271.306C48.6395 273.429 37.2503 267.342 37.2503 267.342L37.3625 265.279C37.3625 265.279 37.6445 241.898 36.8591 240.105C36.0737 238.313 35.4673 229.223 35.913 227.827C36.3588 226.432 34.2968 205.51 34.2968 205.51L33.9602 197.018L21.7462 192.053L27.2043 180.673C27.9399 179.076 28.5739 177.435 29.1025 175.759C30.0486 172.805 34.4575 169.902 34.4575 169.902C34.4575 169.902 38.9756 167.003 40.7586 167.112C42.5416 167.221 44.8855 164.546 44.8855 164.546C46.617 160.139 48.5243 162.135 48.5243 162.135C48.5243 162.344 48.3423 162.438 48.4394 162.787C49.7736 167.479 57.9122 182.911 58.0608 183.181L59.0645 207.342L60.0682 237.918L61.0719 271.306Z" fill="white"/>
<path opacity="0.1" d="M57.7211 183.869C56.3839 183.311 49.3005 175.222 49.3005 175.222V173.381C49.0427 172.774 47.5114 173.144 46.2682 173.569L46.8019 162.386L47.4083 162.89C48.7365 167.579 57.5665 183.599 57.7211 183.869Z" fill="black"/>
<path d="M58.0584 183.199C56.7181 182.641 49.6347 174.552 49.6347 174.552V172.711C49.377 172.104 47.8457 172.474 46.6024 172.899L47.1391 161.716L47.7456 162.219C49.0768 166.908 57.9098 182.932 58.0584 183.199Z" fill="white"/>
<path opacity="0.1" d="M37.5872 223.541C37.7539 223.541 46.2322 222.65 46.2322 222.65C46.2322 222.65 51.3659 232.747 51.0293 235.203C50.6927 237.66 50.0832 239.835 48.0182 239.45C45.9532 239.064 36.9049 239.753 36.9049 239.753L37.5872 223.541Z" fill="black"/>
<path d="M37.2504 222.871C37.4172 222.871 45.8954 221.979 45.8954 221.979C45.8954 221.979 51.026 232.079 50.6925 234.533C50.3589 236.987 49.7434 239.165 47.6814 238.779C45.6195 238.394 36.5681 239.083 36.5681 239.083L37.2504 222.871Z" fill="white"/>
<path d="M43.6398 218.131C43.6398 218.131 51.4206 222.313 51.5874 223.59C51.7542 224.867 47.6272 223.032 46.7357 222.811C46.149 222.669 45.5517 222.576 44.9497 222.532L39.0034 222.692L43.6398 218.131Z" fill="#F3C4B4"/>
<path opacity="0.1" d="M55.55 184.391C56.0022 184.391 56.3688 184.024 56.3688 183.572C56.3688 183.12 56.0022 182.753 55.55 182.753C55.0979 182.753 54.7313 183.12 54.7313 183.572C54.7313 184.024 55.0979 184.391 55.55 184.391Z" fill="black"/>
<path d="M55.55 184.057C56.0022 184.057 56.3688 183.691 56.3688 183.239C56.3688 182.786 56.0022 182.42 55.55 182.42C55.0979 182.42 54.7313 182.786 54.7313 183.239C54.7313 183.691 55.0979 184.057 55.55 184.057Z" fill="#3F3D56"/>
<path opacity="0.1" d="M57.0574 219.841C57.5095 219.841 57.8761 219.475 57.8761 219.022C57.8761 218.57 57.5095 218.204 57.0574 218.204C56.6052 218.204 56.2386 218.57 56.2386 219.022C56.2386 219.475 56.6052 219.841 57.0574 219.841Z" fill="black"/>
<path d="M57.0574 219.504C57.5095 219.504 57.8761 219.138 57.8761 218.686C57.8761 218.233 57.5095 217.867 57.0574 217.867C56.6052 217.867 56.2386 218.233 56.2386 218.686C56.2386 219.138 56.6052 219.504 57.0574 219.504Z" fill="#3F3D56"/>
<path opacity="0.1" d="M56.3663 202.116C56.8185 202.116 57.185 201.749 57.185 201.297C57.185 200.845 56.8185 200.478 56.3663 200.478C55.9142 200.478 55.5476 200.845 55.5476 201.297C55.5476 201.749 55.9142 202.116 56.3663 202.116Z" fill="black"/>
<path d="M56.3663 201.782C56.8185 201.782 57.185 201.416 57.185 200.964C57.185 200.511 56.8185 200.145 56.3663 200.145C55.9142 200.145 55.5476 200.511 55.5476 200.964C55.5476 201.416 55.9142 201.782 56.3663 201.782Z" fill="#3F3D56"/>
<path d="M75.2389 222.362C75.2389 222.362 75.7968 223.199 75.2389 223.59C74.681 223.981 75.2935 224.928 75.2935 224.928C75.2935 224.928 73.9017 225.744 74.5142 226.478C75.1267 227.212 74.7386 230.527 74.7386 230.527L73.0648 233.299C73.0648 233.299 73.1648 235.085 73.1709 237.5C73.1709 241.267 72.9495 246.562 71.7245 248.977L71.8943 268.786C71.8943 268.786 66.0329 270.927 61.1267 270.275L60.3989 238.489C60.3989 238.489 61.4602 220.463 61.8514 217.005C62.0803 215.21 62.1736 213.401 62.1304 211.592C62.1304 211.592 61.9636 206.181 61.4026 203.669C61.4026 203.669 60.7962 192.79 60.7355 189.778C60.7082 188.337 60.784 184.133 60.8689 180.136C60.9629 175.765 61.0691 171.643 61.0691 171.643L59.9623 162.884C59.9623 162.884 61.0691 162.772 61.4026 163.218C61.552 163.357 61.7145 163.482 61.8878 163.591C63.7981 164.883 70.548 168.856 70.548 168.856C70.548 168.856 74.2837 170.342 75.1783 172.471C76.0728 174.601 76.6944 176.111 77.128 176.718C77.5616 177.324 77.7982 180.175 77.7982 180.175C77.7982 180.175 79.0838 185.422 80.0875 186.311C81.0912 187.2 81.825 192.853 81.825 192.853L72.9556 199.829C72.9556 199.829 72.1763 211.434 72.0095 211.883C71.8428 212.332 75.2389 222.362 75.2389 222.362Z" fill="white"/>
<path d="M75.5754 222.362C75.5754 222.362 76.1303 223.199 75.5754 223.59C75.0205 223.982 75.6269 224.928 75.6269 224.928C75.6269 224.928 74.2442 225.753 74.8507 226.487C75.4571 227.221 75.075 230.536 75.075 230.536L73.4012 233.308C73.4012 233.308 73.5013 235.095 73.5104 237.509C73.5104 241.276 73.289 246.572 72.064 248.986L72.2308 268.795C72.2308 268.795 66.3603 270.936 61.4601 270.284L60.7354 238.498C60.7354 238.498 61.7967 220.472 62.1878 217.015C62.417 215.22 62.5093 213.41 62.4638 211.601C62.4638 211.601 62.297 206.19 61.7391 203.678C61.7391 203.678 61.1326 192.799 61.0689 189.787C61.0416 188.346 61.1205 184.142 61.2023 180.145C61.2963 175.774 61.4025 171.652 61.4025 171.652L59.9409 162.775C59.9409 162.775 61.4025 162.775 61.7391 163.227C61.8871 163.368 62.0497 163.493 62.2242 163.6C64.1346 164.892 70.8875 168.865 70.8875 168.865C70.8875 168.865 74.6202 170.351 75.5147 172.48C76.4092 174.61 77.0309 176.12 77.4675 176.727C77.9042 177.333 78.1346 180.184 78.1346 180.184C78.1346 180.184 79.4203 185.432 80.424 186.32C81.4277 187.209 82.1524 192.85 82.1524 192.85L73.283 199.826C73.283 199.826 72.5037 211.431 72.3339 211.88C72.1641 212.329 75.5754 222.362 75.5754 222.362Z" fill="white"/>
<path opacity="0.1" d="M64.9536 174.227L65.7541 176.563L61.5393 180.809C61.6333 176.441 61.7394 172.316 61.7394 172.316L60.2778 163.439C60.2778 163.439 61.7394 163.439 62.076 163.891C62.2236 164.031 62.3863 164.156 62.5611 164.261L66.1453 174.603L64.9536 174.227Z" fill="black"/>
<path d="M64.6167 173.557L65.4202 175.892L61.2054 180.139C61.2994 175.768 61.4055 171.646 61.4055 171.646L59.9409 162.768C59.9409 162.768 61.4055 162.768 61.7391 163.22C61.8878 163.361 62.0503 163.486 62.2242 163.593L65.8114 173.933L64.6167 173.557Z" fill="white"/>
<path opacity="0.1" d="M64.6166 150.448C64.619 151.541 64.447 152.628 64.1071 153.666C64.0498 153.675 63.9913 153.673 63.9351 153.659C63.8788 153.644 63.826 153.619 63.7796 153.584C63.7008 150.855 62.3575 148.292 60.7049 146.111C60.2409 145.453 59.6784 144.869 59.0372 144.382C58.3888 143.895 57.5824 143.667 56.7751 143.742C55.8654 143.867 55.0618 144.485 54.1431 144.564C52.9301 144.664 51.8446 143.824 50.6408 143.782C50.1514 143.786 49.6686 143.895 49.2247 144.101C48.7807 144.307 48.3859 144.606 48.0664 144.977C47.4339 145.725 46.9641 146.597 46.6867 147.537C46.2099 148.962 45.9503 150.45 45.9165 151.953C45.9013 152.802 45.8194 153.867 45.031 154.176C45.0904 153.551 45.0194 152.921 44.8227 152.325C44.6259 151.73 44.3076 151.181 43.8879 150.715L43.8697 150.697C43.8697 150.612 43.8697 150.533 43.8697 150.448C43.8461 149.071 44.0971 147.702 44.6079 146.422C45.1187 145.143 45.8792 143.977 46.8449 142.995C47.8107 142.012 48.9623 141.232 50.2328 140.699C51.5033 140.166 52.8671 139.892 54.2446 139.892C55.6222 139.892 56.986 140.166 58.2565 140.699C59.5269 141.232 60.6786 142.012 61.6443 142.995C62.6101 143.977 63.3705 145.143 63.8814 146.422C64.3922 147.702 64.6431 149.071 64.6196 150.448H64.6166Z" fill="black"/>
<path d="M58.5398 133.97C56.9641 133.228 55.1719 133.088 53.5001 133.576C52.6602 133.824 51.8688 134.228 51.0167 134.431C49.1973 134.871 47.0747 134.394 45.5131 135.459C44.6459 136.066 44.1243 137.024 43.6392 137.955L42.4263 140.266C41.7652 141.531 41.0981 142.817 40.8222 144.209C40.5462 145.602 40.713 147.161 41.5954 148.28C42.2382 149.096 43.1874 149.608 43.8848 150.376C44.3026 150.842 44.6195 151.39 44.8157 151.985C45.0119 152.58 45.0831 153.209 45.0249 153.833C45.8163 153.53 45.8921 152.462 45.9103 151.613C45.9441 150.111 46.2038 148.622 46.6805 147.197C46.9573 146.257 47.4272 145.385 48.0602 144.637C48.38 144.266 48.7749 143.968 49.2188 143.762C49.6627 143.556 50.1453 143.447 50.6346 143.442C51.8476 143.484 52.9361 144.322 54.1369 144.221C55.0466 144.146 55.8532 143.524 56.7689 143.403C57.5764 143.326 58.3832 143.554 59.031 144.043C59.6721 144.529 60.2337 145.112 60.6957 145.771C62.3514 147.952 63.6947 150.509 63.7735 153.245C64.1162 153.497 64.6104 153.169 64.7802 152.781C64.95 152.392 64.9561 151.938 65.1714 151.568C65.42 151.14 65.8961 150.912 66.2691 150.591C67.2151 149.775 67.4517 148.401 67.4153 147.154C67.3789 145.908 67.1363 144.643 67.3728 143.418C67.5153 142.666 67.8368 141.962 68.0126 141.219C68.1885 140.476 68.2097 139.642 67.7943 139.002C67.1879 138.061 65.9113 137.876 64.7984 137.788C63.534 137.679 62.4029 137.819 61.5963 136.754C61.2177 136.199 60.7916 135.677 60.3228 135.195C60.1621 135.037 58.5398 134.037 58.5398 133.97Z" fill="#2A3138"/>
<path opacity="0.1" d="M25.5824 197.93L22.4137 192.071L21.41 201.112C21.41 201.112 21.968 205.128 21.8558 205.744C21.7436 206.359 24.1421 211.879 24.1421 211.879C24.1421 211.879 32.0655 225.995 35.3009 226.723L46.2323 218.91L43.3334 215.228C43.3334 215.228 42.3297 214.837 42.0781 215.228C42.0781 215.228 36.6958 205.965 36.1378 205.295C35.5799 204.624 35.689 203.287 35.689 203.287C35.689 203.287 34.8521 202.395 35.1311 201.558C35.4101 200.721 33.5149 197.818 33.5149 197.818L35.2433 196.202L25.5824 197.93Z" fill="black"/>
<path d="M22.5802 191.403L21.7433 192.071L20.7396 201.112C20.7396 201.112 21.2976 205.128 21.1854 205.744C21.0732 206.359 23.4747 211.879 23.4747 211.879C23.4747 211.879 31.3951 225.995 34.6305 226.723L45.5649 218.91L42.663 215.228C42.663 215.228 41.6593 214.837 41.4077 215.228C41.4077 215.228 36.0254 205.965 35.4674 205.295C34.9095 204.624 35.0217 203.287 35.0217 203.287C35.0217 203.287 34.1848 202.395 34.4637 201.558C34.7427 200.721 32.8445 197.818 32.8445 197.818L34.5729 196.202L22.5802 191.403Z" fill="white"/>
<path opacity="0.1" d="M74.5139 226.823C75.1203 227.56 74.7383 230.869 74.7383 230.869L73.0644 233.641C73.0644 233.641 73.1645 235.431 73.1706 237.842L70.3566 238.722C70.1023 238.801 69.8327 238.819 69.5703 238.773C69.3078 238.727 69.0602 238.619 68.848 238.458C68.6359 238.296 68.4653 238.087 68.3506 237.846C68.2359 237.606 68.1803 237.341 68.1885 237.075L68.6737 221.421L75.2386 223.933C74.6806 224.321 75.2932 225.273 75.2932 225.273C75.2932 225.273 73.9014 226.086 74.5139 226.823Z" fill="black"/>
<path d="M74.8511 226.487C75.4575 227.224 75.0755 230.536 75.0755 230.536L73.4017 233.308C73.4017 233.308 73.5017 235.094 73.5108 237.509L70.6453 238.403C70.3963 238.481 70.1323 238.498 69.8755 238.452C69.6186 238.407 69.3763 238.301 69.1686 238.143C68.961 237.985 68.794 237.78 68.6817 237.545C68.5693 237.309 68.5148 237.051 68.5227 236.79L69.0109 221.088L75.5788 223.599C75.0179 223.987 75.6304 224.937 75.6304 224.937C75.6304 224.937 74.2446 225.753 74.8511 226.487Z" fill="white"/>
<path d="M77.0247 219.025C77.0247 219.025 76.579 221.873 75.4631 222.04C74.3472 222.207 73.8469 226.647 72.7341 226.49C71.6212 226.332 72.3581 222.362 72.3975 221.591C72.4369 220.821 71.1846 217.63 72.1215 216.905C73.0585 216.18 76.0241 216.905 76.0241 216.905L77.0247 219.025Z" fill="#F3C4B4"/>
<path opacity="0.1" d="M79.3995 197.093L81.5039 192.847C81.5039 192.847 82.3408 196.083 82.3408 197.812C82.3408 199.541 83.5112 199.711 83.5112 199.711C83.5112 199.711 84.7939 201.227 84.1177 202.331C83.4415 203.435 83.1686 206.183 83.1686 206.183C83.1686 206.183 83.3899 211.427 82.3863 212.152C81.3826 212.877 81.1733 214.609 81.1733 214.609C81.1733 214.609 79.3297 217.9 79.3873 218.682C79.4449 219.465 76.822 224.764 76.822 224.764C76.822 224.764 78.1047 218.179 70.6301 215.334C70.6301 215.334 70.5725 213.099 71.1304 212.486C71.6884 211.873 72.5586 211.594 72.0128 208.498C71.467 205.401 71.8551 201.7 71.8551 200.957C71.8551 200.214 73.529 195.58 73.529 195.58L79.3995 197.093Z" fill="black"/>
<path d="M80.309 192.241L82.1465 192.847C82.1465 192.847 82.9865 196.084 82.9865 197.812C82.9865 199.541 84.1569 199.711 84.1569 199.711C84.1569 199.711 85.4396 201.228 84.7634 202.332C84.0872 203.436 83.8173 206.184 83.8173 206.184C83.8173 206.184 84.0387 211.428 83.035 212.153C82.0313 212.878 81.8069 214.609 81.8069 214.609C81.8069 214.609 79.9663 217.9 80.0239 218.683C80.0815 219.465 77.4556 224.764 77.4556 224.764C77.4556 224.764 78.7413 218.179 71.2637 215.334C71.2637 215.334 71.2091 213.099 71.767 212.486C72.325 211.874 73.1952 211.595 72.6494 208.498C72.1036 205.401 72.4917 201.701 72.4917 200.958C72.4917 200.215 74.1656 195.58 74.1656 195.58L80.309 192.241Z" fill="white"/>
<path opacity="0.1" d="M39.7218 302.301C39.7218 302.301 42.651 300.46 44.5735 301.797C46.4959 303.135 39.7218 302.301 39.7218 302.301Z" fill="black"/>
<path opacity="0.1" d="M62.4822 296.608C62.4822 296.608 65.0748 296.274 67.252 298.619C69.4291 300.963 62.4822 296.608 62.4822 296.608Z" fill="black"/>
<g opacity="0.1">
<path opacity="0.1" d="M66.2753 149.926C65.9024 150.248 65.4233 150.478 65.1746 150.906C64.9624 151.273 64.9563 151.725 64.7865 152.119C64.6167 152.514 64.1224 152.835 63.7798 152.586C63.7009 149.857 62.3546 147.294 60.702 145.11C60.24 144.451 59.6784 143.868 59.0373 143.381C58.3883 142.893 57.5805 142.665 56.7722 142.741C55.8625 142.865 55.062 143.484 54.1432 143.56C52.9303 143.663 51.8417 142.823 50.6379 142.781C50.1487 142.785 49.6661 142.895 49.2227 143.101C48.7792 143.308 48.385 143.607 48.0665 143.979C47.4335 144.725 46.9635 145.596 46.6868 146.535C46.2103 147.961 45.9507 149.449 45.9166 150.952C45.8984 151.798 45.8196 152.853 45.0372 153.169C45.0554 153.393 45.0554 153.618 45.0372 153.842C45.8256 153.539 45.9045 152.471 45.9227 151.622C45.9565 150.12 46.2161 148.631 46.6929 147.206C46.9696 146.266 47.4395 145.394 48.0725 144.646C48.3917 144.275 48.7861 143.977 49.2295 143.771C49.6729 143.565 50.1551 143.456 50.6439 143.451C51.8568 143.493 52.9485 144.33 54.1492 144.23C55.0589 144.155 55.8655 143.533 56.7782 143.411C57.5866 143.335 58.3943 143.563 59.0433 144.051C59.6844 144.538 60.246 145.121 60.7081 145.78C62.3607 147.961 63.707 150.518 63.7858 153.254C64.1285 153.505 64.6227 153.178 64.7925 152.79C64.9624 152.401 64.9684 151.946 65.1807 151.576C65.4293 151.149 65.9084 150.921 66.2814 150.6C67.2275 149.784 67.464 148.41 67.4276 147.163C67.4276 147.124 67.4276 147.084 67.4276 147.048C67.37 148.128 67.0819 149.229 66.2753 149.926Z" fill="black"/>
<path opacity="0.1" d="M43.8911 149.711C43.1937 148.944 42.2415 148.431 41.6017 147.618C41.063 146.899 40.7553 146.033 40.7193 145.134C40.6239 146.257 40.9373 147.376 41.6017 148.286C42.2415 149.102 43.1937 149.614 43.8911 150.382C44.5607 151.132 44.9627 152.084 45.0343 153.087C45.0807 152.476 45.0034 151.863 44.8069 151.282C44.6105 150.702 44.299 150.168 43.8911 149.711Z" fill="black"/>
<path opacity="0.1" d="M68.0189 140.554C67.84 141.297 67.5216 142.004 67.3761 142.753C67.2899 143.254 67.2583 143.762 67.2821 144.27C67.2922 143.981 67.3236 143.693 67.3761 143.408C67.5216 142.656 67.84 141.953 68.0189 141.209C68.1232 140.8 68.157 140.375 68.119 139.954C68.1001 140.156 68.0667 140.357 68.0189 140.554Z" fill="black"/>
</g>
<path opacity="0.1" d="M326.604 319.558C348.01 319.558 365.362 317.324 365.362 314.568C365.362 311.812 348.01 309.578 326.604 309.578C305.198 309.578 287.846 311.812 287.846 314.568C287.846 317.324 305.198 319.558 326.604 319.558Z" fill="#1A6DE3"/>
<path opacity="0.1" d="M331.637 182.092H322.572V191.16H331.637V182.092Z" fill="#1A6DE3"/>
<path opacity="0.1" d="M331.637 204.459H322.572V213.527H331.637V204.459Z" fill="#1A6DE3"/>
<path opacity="0.1" d="M331.637 226.822H322.572V235.89H331.637V226.822Z" fill="#1A6DE3"/>
<path opacity="0.1" d="M331.637 249.189H322.572V258.257H331.637V249.189Z" fill="#1A6DE3"/>
<path d="M350.658 307.056L350.279 311.574L351.55 311.319L351.359 306.419L350.658 307.056Z" fill="#223973"/>
<path d="M321.641 285.604C320.108 289.972 320.541 295.868 320.885 298.731C321.013 299.79 321.131 300.434 321.131 300.434C321.131 300.434 318.839 305.656 318.648 305.854C318.457 306.052 311.903 310.053 311.903 310.053L307.322 312.728C307.322 312.728 302.675 310.691 304.903 309.989C305.358 309.807 305.768 309.527 306.104 309.17C308.336 307.05 311.138 301.779 311.138 301.779C311.138 301.779 311.329 299.104 312.03 297.832C312.732 296.56 312.476 283.191 312.476 283.191L312.531 261.398V258.557L321.249 258.621C321.304 259.585 321.43 260.544 321.625 261.49C321.938 263.123 322.343 264.737 322.839 266.324C324.376 271.295 323.738 279.62 321.641 285.604Z" fill="#FFD7CE"/>
<path opacity="0.1" d="M321.131 300.434C321.131 300.434 318.839 305.656 318.648 305.854C318.457 306.052 311.903 310.053 311.903 310.053L307.322 312.728C307.322 312.728 302.675 310.691 304.903 309.989C305.358 309.807 305.768 309.527 306.104 309.17L306.302 310.563L307.829 310.5L320.898 298.737C321.013 299.79 321.131 300.434 321.131 300.434Z" fill="black"/>
<path d="M320.972 299.034L307.829 310.876L306.302 310.94L305.983 308.708C305.983 308.708 303.312 312.145 297.377 311.954C297.377 311.954 293.813 314.31 299.095 314.437C304.377 314.565 311.122 314.246 311.122 314.246C311.122 314.246 315.833 306.913 319.776 307.869V313.407H320.988V307.818C321.551 307.439 322.031 306.95 322.401 306.38C322.77 305.81 323.02 305.171 323.136 304.502C323.241 303.813 323.167 303.108 322.92 302.456C322.674 301.804 322.264 301.226 321.73 300.778C321.492 300.554 321.301 300.284 321.171 299.984C321.04 299.685 320.973 299.361 320.972 299.034Z" fill="#223973"/>
<path d="M351.869 292.415C351.021 295.444 351.483 297.15 352.064 298.065V298.084C352.808 299.214 353.325 300.478 353.587 301.805L353.638 302.092L347.658 310.812L344.413 312.088C344.413 312.088 339.195 310.305 340.148 309.795C340.387 309.671 340.76 309.008 341.187 308.093C342.462 305.335 344.222 300.246 344.222 300.246V300.204C344.407 298.103 344.7 296.008 345.025 293.923C345.609 290.17 344.538 280.959 344.538 280.959C344.538 280.959 344.155 269.758 343.326 267.211C342.952 265.915 342.703 264.587 342.583 263.244C342.411 261.65 342.373 260.336 342.373 260.336C342.373 260.336 345.809 255.554 352.108 260.719C352.612 261.131 353.055 261.612 353.425 262.147C357.776 268.339 354.273 281.979 354.273 281.979C354.273 281.979 353.396 286.941 351.869 292.415Z" fill="#FFD7CE"/>
<path opacity="0.1" d="M353.648 302.092L347.668 310.812L344.423 312.087C344.423 312.087 339.205 310.305 340.158 309.795C340.397 309.671 340.77 309.007 341.197 308.092C343.406 308.073 344.551 310.178 344.551 310.178L347.349 309.731C347.349 309.731 351.041 302.474 351.869 302.031C352.698 301.588 351.997 298.718 351.997 298.718V297.988C352.019 298.014 352.038 298.042 352.064 298.068V298.087C352.808 299.217 353.325 300.481 353.588 301.808L353.648 302.092Z" fill="black"/>
<path d="M344.742 310.366C344.742 310.366 343.148 307.439 340.094 308.52C340.094 308.52 338.376 312.027 336.658 312.595C334.94 313.162 335.514 315.075 339.396 314.377C343.279 313.679 349.131 313.102 349.131 313.102L349.386 309.534L353.333 304.506C353.333 304.506 355.685 302.373 352.185 298.173V298.904C352.185 298.904 352.886 301.773 352.057 302.216C351.229 302.66 347.55 309.92 347.55 309.92L344.742 310.366Z" fill="#223973"/>
<path opacity="0.1" d="M321.259 258.614C321.314 259.579 321.439 260.538 321.635 261.484C318.046 260.958 314.715 261.219 312.531 261.391V258.551L321.259 258.614Z" fill="black"/>
<path opacity="0.1" d="M353.778 262.941C353.778 262.941 348.678 263.19 342.596 263.241C342.424 261.647 342.386 260.333 342.386 260.333C342.386 260.333 345.822 255.55 352.121 260.716C352.624 261.128 353.068 261.608 353.437 262.144C353.536 262.416 353.65 262.682 353.778 262.941Z" fill="black"/>
<path d="M353.779 262.367C353.779 262.367 331.44 263.448 324.631 261.538C317.822 259.628 311.074 261.283 310.057 260.84C309.04 260.397 309.866 253.455 310.758 251.737C311.651 250.018 316.547 232.638 316.547 232.638L321.258 208.068L326.221 206.7L326.572 206.601L335.22 204.216L341.557 202.466C341.557 202.466 354.158 251.673 353.077 255.301C352.685 256.691 352.622 258.153 352.892 259.571C353.057 260.539 353.356 261.48 353.779 262.367Z" fill="#4061B8"/>
<path d="M304.836 191.265C304.836 191.265 300.373 196.048 303.752 198.713C307.131 201.379 309.352 198.969 309.352 198.969L304.836 191.265Z" fill="#C7DAF5"/>
<path opacity="0.1" d="M304.836 191.265C304.836 191.265 300.373 196.048 303.752 198.713C307.131 201.379 309.352 198.969 309.352 198.969L304.836 191.265Z" fill="black"/>
<path d="M340.891 159.821C340.891 159.821 340.369 160.318 339.581 161.052C338.459 162.101 336.798 163.634 335.326 164.919C333.286 166.695 331.603 167.999 332.205 166.887C332.807 165.774 332.693 163.835 332.393 162.021C332.371 161.9 332.352 161.779 332.329 161.661C332.081 160.328 331.752 159.012 331.344 157.72C331.344 157.72 334.64 153.46 336.464 151.78C337.143 151.142 337.618 150.881 337.646 151.324C337.678 151.92 338.124 153.237 338.679 154.633C338.695 154.678 338.711 154.719 338.73 154.764C339.1 155.721 339.517 156.703 339.884 157.551C340.445 158.852 340.891 159.821 340.891 159.821Z" fill="#FFD7CE"/>
<path opacity="0.1" d="M338.73 154.764C338.42 156.43 337.669 157.983 336.554 159.259C335.439 160.536 334.002 161.49 332.393 162.021C332.14 160.565 331.789 159.128 331.344 157.72C331.344 157.72 337.551 149.701 337.646 151.324C337.669 151.939 338.153 153.304 338.73 154.764Z" fill="black"/>
<path opacity="0.1" d="M331.775 164.163L332.578 163.031C332.578 163.031 333.11 166.277 335.067 164.846C337.025 163.414 337.12 175.619 337.12 175.619L335.02 207.035L319.84 206.126L320.27 190.946L321.989 183.294L326.238 172.169L328.765 168.493L331.775 164.163Z" fill="black"/>
<path d="M337.12 175.814L335.207 204.22L335.007 207.23L326.543 206.723L326.225 206.703L319.849 206.321L320.28 191.138L321.998 183.485L326.247 172.361L328.775 168.685L331.784 164.339L332.587 163.21C332.587 163.21 333.119 166.456 335.077 165.024L335.118 164.996C337.031 163.784 337.12 175.814 337.12 175.814Z" fill="#4061B8"/>
<path d="M322.212 180.826C322.212 180.826 321.45 182.42 319.92 182.162C318.39 181.904 318.393 187.901 318.393 187.901C318.393 187.901 317.376 188.858 316.675 188.029C315.973 187.2 314.125 190.002 314.125 190.002L302.541 190.513C302.541 190.513 307.695 192.869 306.685 199.998C306.685 199.998 324.185 198.914 324.759 197.259C325.332 195.605 322.212 180.826 322.212 180.826Z" fill="white"/>
<path opacity="0.03" d="M322.212 180.826C322.212 180.826 321.45 182.42 319.92 182.162C318.39 181.904 318.393 187.901 318.393 187.901C318.393 187.901 317.376 188.858 316.675 188.029C315.973 187.2 314.125 190.002 314.125 190.002L302.541 190.513C302.541 190.513 307.695 192.869 306.685 199.998C306.685 199.998 324.185 198.914 324.759 197.259C325.332 195.605 322.212 180.826 322.212 180.826Z" fill="black"/>
<path d="M288.547 194.259L291.601 196.867L316.738 202.151L313.621 198.968L288.547 194.259Z" fill="white"/>
<path d="M331.823 165.168C331.405 165.806 330.21 169.071 329.212 171.921C328.38 174.296 327.685 176.385 327.685 176.385C327.685 176.385 326.063 186.951 325.234 188.861C324.405 190.771 324.855 198.219 324.855 198.219L321.766 216.613C321.766 216.613 320.366 226.099 318.205 231.765C316.073 237.341 313.698 239.956 313.625 240.039C314.581 238.744 319.793 213.256 319.793 213.256L321.514 181.11C321.514 181.11 321.766 178.056 322.021 175.444C322.276 172.833 327.44 169.268 327.44 169.268L332.419 162.187C332.919 162.856 332.585 164.023 331.823 165.168Z" fill="white"/>
<path d="M318.839 206.48C318.839 206.48 311.508 206.162 307.957 201.895C304.406 197.629 316.165 200.193 316.165 200.193L319.222 200.894L318.839 206.48Z" fill="#FFD7CE"/>
<path opacity="0.1" d="M353.077 255.305C352.685 256.694 352.621 258.156 352.892 259.574C344.894 260.142 336.339 257.98 336.339 257.98C334.745 259.446 330.547 261.608 330.547 261.608L328.258 233.231C326.795 229.405 326.221 209.359 326.221 209.359C326.221 209.359 326.352 208.31 326.54 206.739C326.54 206.7 326.54 206.659 326.556 206.621C327.126 202.23 328.258 193.988 328.813 192.875C329.578 191.345 326.46 187.273 326.46 187.273L327.879 175.173L328.051 173.713C331.041 172.377 333.333 168.111 333.333 168.111L335.092 165.028C337.005 163.8 337.104 175.83 337.104 175.83L335.191 204.236L341.528 202.485C341.528 202.485 354.158 251.676 353.077 255.305Z" fill="black"/>
<path d="M361.285 257.266C352.567 261.596 336.722 257.585 336.722 257.585C335.128 259.051 330.93 261.213 330.93 261.213L328.638 232.836C327.178 229.01 326.604 208.964 326.604 208.964C326.604 208.964 328.446 194.007 329.211 192.48C329.435 192.034 329.326 191.371 329.062 190.656C327.761 187.257 327.282 183.598 327.665 179.978L328.278 174.778L328.446 173.321C331.44 171.982 333.732 167.716 333.732 167.716L335.325 164.923L338.258 159.776L339.648 157.34L339.884 157.554L341.685 159.187C341.685 159.187 342.45 159.824 343.597 160.781C346.093 162.885 350.406 166.59 352.631 168.857C354.588 170.853 355.207 178.617 355.385 184.461C355.503 188.31 355.433 191.326 355.433 191.326C353.46 194.575 358.621 220.659 358.621 220.659C359.822 225.7 361.285 257.266 361.285 257.266Z" fill="white"/>
<path opacity="0.03" d="M344.551 167.651C344.551 167.651 338.567 179.044 339.262 183.374C339.957 187.703 341.934 192.604 340.98 193.749C340.653 194.182 340.23 194.534 339.744 194.777C339.257 195.02 338.722 195.147 338.178 195.148C337.222 195.212 334.672 196.994 334.672 197.186C334.672 197.377 332.316 197.377 330.209 198.27C328.102 199.163 324.991 199.67 324.991 199.67C324.991 199.67 318.935 199.478 318.371 200.052C317.806 200.626 317.226 204.06 318.434 206.799C319.642 209.538 320.984 211.582 321.998 211.955C323.012 212.328 329.444 210.172 334.663 209.662C339.881 209.152 345.545 205.017 345.545 205.017C345.545 205.017 351.783 202.785 352.877 199.032C353.97 195.279 351.541 174.653 351.541 174.653C351.541 174.653 349.705 165.04 344.551 167.651Z" fill="black"/>
<path opacity="0.03" d="M343.785 166.695C343.785 166.695 337.802 178.091 338.503 182.417C339.205 186.744 341.175 191.648 340.218 192.796C339.892 193.23 339.469 193.582 338.984 193.825C338.498 194.068 337.963 194.195 337.42 194.195C336.463 194.259 333.913 196.042 333.913 196.233C333.913 196.424 331.558 196.424 329.451 197.314C327.344 198.203 324.232 198.713 324.232 198.713C324.232 198.713 318.176 198.522 317.615 199.096C317.054 199.67 316.467 203.107 317.679 205.843C318.89 208.578 320.229 210.625 321.242 210.998C322.256 211.372 328.689 209.216 333.907 208.709C339.125 208.202 344.789 204.06 344.789 204.06C344.789 204.06 351.024 201.829 352.105 198.079C353.186 194.329 350.769 173.697 350.769 173.697C350.769 173.697 348.94 164.087 343.785 166.695Z" fill="black"/>
<path d="M344.362 167.078C344.362 167.078 338.379 178.473 339.08 182.8C339.782 187.127 341.752 192.03 340.799 193.175C340.472 193.61 340.049 193.963 339.563 194.207C339.077 194.45 338.54 194.577 337.997 194.578C337.04 194.642 334.49 196.424 334.49 196.612C334.49 196.8 332.138 196.803 330.028 197.696C327.917 198.589 324.809 199.096 324.809 199.096C324.809 199.096 318.753 198.905 318.189 199.478C317.624 200.052 317.044 203.49 318.252 206.225C319.461 208.961 320.803 211.008 321.816 211.381C322.83 211.754 329.263 209.599 334.481 209.088C339.699 208.578 345.363 204.443 345.363 204.443C345.363 204.443 351.601 202.211 352.695 198.458C353.788 194.705 351.375 174.079 351.375 174.079C351.375 174.079 349.514 164.482 344.362 167.078Z" fill="white"/>
<path opacity="0.1" d="M344.231 197.642C344.231 197.642 339.45 196.685 341.114 198.28C342.778 199.874 342.768 201.27 344.805 201.207C346.842 201.143 344.231 197.642 344.231 197.642Z" fill="black"/>
<path opacity="0.1" d="M352.313 231.943C352.313 231.943 350.151 233.407 354.286 236.78C358.42 240.154 352.313 231.943 352.313 231.943Z" fill="black"/>
<path opacity="0.1" d="M348.188 243.973C348.188 244.165 347.423 250.988 350.285 252.694C353.148 254.399 348.188 243.973 348.188 243.973Z" fill="black"/>
<path d="M302.738 190.497C300.43 190.576 295.445 191.281 298.03 196.105C300.316 200.374 304.157 197.521 306.318 195.356C305.791 193.337 304.51 191.598 302.738 190.497Z" fill="#FFD7CE"/>
<path d="M306.347 195.318L306.443 195.219L306.347 195.318Z" fill="#FFD7CE"/>
<path opacity="0.1" d="M343.597 160.975C341.149 162.649 339.097 164.061 338.695 164.355C337.598 165.168 335.507 169.941 334.159 172.377C333.085 174.338 329.594 174.841 328.278 174.966L328.447 173.509C331.44 172.169 333.732 167.903 333.732 167.903L339.648 157.528L341.685 159.381C341.685 159.381 342.45 160.018 343.597 160.975Z" fill="black"/>
<path d="M343.597 160.784C341.149 162.458 339.097 163.87 338.695 164.167C337.598 164.977 335.507 169.75 334.159 172.186C333.085 174.147 329.594 174.65 328.278 174.775L328.447 173.318C331.44 171.978 333.732 167.712 333.732 167.712L339.648 157.337L341.685 159.183C341.685 159.183 342.45 159.815 343.597 160.784Z" fill="#DCE7FF"/>
<path d="M338.886 152.66C338.887 154.574 338.307 156.443 337.222 158.019C335.94 159.884 334.033 161.226 331.847 161.804C329.66 162.382 327.339 162.157 325.304 161.17C323.27 160.182 321.656 158.498 320.757 156.422C319.857 154.347 319.731 152.017 320.402 149.857C321.073 147.696 322.496 145.848 324.412 144.647C326.329 143.446 328.612 142.972 330.848 143.311C333.085 143.65 335.125 144.78 336.6 146.495C338.074 148.21 338.885 150.397 338.886 152.66Z" fill="#FFD7CE"/>
<path opacity="0.1" d="M355.385 184.464C354.091 183.668 353.037 182.535 352.335 181.187C351.802 180.134 351.449 178.92 350.54 178.174C349.721 177.504 348.628 177.341 347.607 177.042C344.254 176.05 341.443 172.989 341.337 169.495C341.286 167.849 341.8 166.207 341.567 164.578C341.435 163.656 341.068 162.783 340.502 162.043C340.221 161.689 339.913 161.358 339.581 161.052C339.135 160.631 338.666 160.223 338.258 159.776C338.001 159.5 337.777 159.195 337.589 158.868C337.437 158.6 337.314 158.316 337.222 158.023C336.585 156.071 337.165 153.757 336.464 151.783L336.425 151.675C336.161 150.973 335.622 150.272 334.873 150.217C334.124 150.163 333.483 150.785 332.769 151.062C331.274 151.643 329.661 150.654 328.415 149.647C327.168 148.639 325.763 147.488 324.178 147.711C323.13 147.861 322.301 148.575 321.335 148.945C321.117 149.03 320.892 149.095 320.662 149.14C321.48 147.101 322.982 145.41 324.91 144.358C326.838 143.307 329.072 142.959 331.228 143.376C333.385 143.793 335.329 144.948 336.726 146.643C338.123 148.338 338.887 150.466 338.886 152.663C338.887 153.326 338.818 153.988 338.679 154.637C338.695 154.681 338.711 154.723 338.73 154.767C339.1 155.724 339.517 156.706 339.884 157.554L341.685 159.186C341.685 159.186 342.45 159.824 343.597 160.781C346.093 162.885 350.406 166.59 352.631 168.857C354.588 170.859 355.2 178.62 355.385 184.464Z" fill="black"/>
<path d="M321.224 143.12C321.679 142.192 321.906 141.153 322.451 140.273C323.251 138.997 324.647 138.181 326.081 137.687C329.827 136.395 337.742 134.521 340.107 137.687C340.572 138.324 340.958 139.032 341.602 139.472C342.093 139.807 342.686 139.951 343.225 140.202C344.732 140.91 345.695 142.454 346.208 144.029C346.721 145.604 346.874 147.294 347.251 148.916C347.732 150.998 348.577 152.972 349.418 154.933C350.409 157.248 351.461 159.649 353.374 161.284C355.985 163.516 356.562 166.676 358.984 169.125C361.853 172.033 361.761 176.831 360.282 180.641C360.087 181.142 359.867 181.665 359.944 182.197C360.02 182.73 360.415 183.214 360.788 183.638L362.357 185.408C358.646 186.304 354.448 184.365 352.721 180.963C352.188 179.911 351.834 178.7 350.923 177.95C350.107 177.281 349.01 177.121 347.993 176.822C344.64 175.827 341.828 172.763 341.723 169.268C341.672 167.626 342.185 165.984 341.953 164.358C341.823 163.43 341.455 162.551 340.885 161.807C340.008 160.663 338.685 159.894 337.971 158.619C336.763 156.486 337.681 153.715 336.811 151.426C336.543 150.724 336.008 150.023 335.259 149.969C334.51 149.914 333.869 150.536 333.152 150.814C331.66 151.394 330.047 150.409 328.801 149.398C327.554 148.387 326.148 147.239 324.561 147.466C323.512 147.612 322.687 148.327 321.721 148.7C321.007 148.974 319.56 149.219 318.935 148.617C317.615 147.402 320.672 144.255 321.224 143.12Z" fill="#2A3138"/>
<path opacity="0.1" d="M353.606 179.911C353.071 178.859 352.72 177.647 351.808 176.901C350.992 176.232 349.896 176.069 348.876 175.769C345.525 174.778 342.714 171.714 342.606 168.219C342.555 166.577 343.068 164.932 342.838 163.306C342.705 162.384 342.337 161.511 341.77 160.771C340.891 159.626 339.568 158.858 338.857 157.583C337.649 155.453 338.567 152.682 337.693 150.39C337.429 149.691 336.89 148.99 336.144 148.932C335.398 148.875 334.751 149.503 334.037 149.781C332.545 150.361 330.929 149.372 329.686 148.365C328.443 147.357 327.031 146.206 325.447 146.43C324.398 146.579 323.569 147.294 322.606 147.663C321.892 147.938 320.442 148.186 319.817 147.584C318.504 146.308 321.561 143.168 322.109 142.039C322.565 141.108 322.791 140.072 323.339 139.192C323.368 139.144 323.4 139.096 323.432 139.048C323.022 139.388 322.668 139.791 322.383 140.241C321.838 141.121 321.612 142.154 321.156 143.088C320.605 144.217 317.548 147.367 318.864 148.633C319.502 149.239 320.936 148.99 321.65 148.716C322.606 148.343 323.441 147.628 324.49 147.482C326.084 147.255 327.487 148.406 328.73 149.414C329.973 150.421 331.599 151.41 333.084 150.83C333.798 150.552 334.423 149.927 335.188 149.985C335.953 150.042 336.463 150.74 336.74 151.442C337.611 153.731 336.692 156.502 337.901 158.635C338.615 159.888 339.937 160.672 340.814 161.823C341.385 162.567 341.752 163.446 341.882 164.374C342.115 166 341.601 167.642 341.652 169.284C341.758 172.791 344.569 175.843 347.923 176.838C348.933 177.137 350.036 177.297 350.852 177.966C351.767 178.716 352.127 179.927 352.65 180.979C354.377 184.381 358.576 186.32 362.286 185.424L361.546 184.589C358.33 184.637 355.076 182.806 353.606 179.911Z" fill="black"/>
<path opacity="0.1" d="M331.631 165.359C331.213 165.997 330.018 169.262 329.02 172.112C328.086 171.749 327.239 169.431 327.239 169.431L332.218 162.346C332.728 163.048 332.393 164.211 331.631 165.359Z" fill="black"/>
<path d="M331.822 165.168C331.405 165.805 330.209 169.07 329.212 171.921C328.278 171.561 327.43 169.239 327.43 169.239L332.409 162.158C332.919 162.856 332.584 164.023 331.822 165.168Z" fill="#DCE7FF"/>
<path d="M302.873 197.741L300.112 189.033C300.079 188.931 300.067 188.824 300.076 188.717C300.085 188.61 300.115 188.507 300.164 188.411C300.213 188.316 300.281 188.232 300.363 188.163C300.444 188.094 300.539 188.042 300.641 188.01C300.847 187.946 301.069 187.965 301.26 188.064C301.451 188.163 301.595 188.334 301.661 188.539L304.422 197.237L304.148 199.058L302.873 197.741Z" fill="#BE8B87"/>
<path opacity="0.1" d="M300.373 188.268C300.579 188.203 300.802 188.222 300.994 188.321C301.186 188.42 301.33 188.592 301.396 188.797L304.156 197.495L303.949 198.86L304.15 199.07L304.424 197.25L301.648 188.552C301.582 188.347 301.438 188.176 301.247 188.077C301.056 187.978 300.833 187.958 300.628 188.022C300.455 188.079 300.306 188.191 300.204 188.341C300.258 188.312 300.315 188.288 300.373 188.268Z" fill="white"/>
<path d="M302.872 197.741L304.422 197.25L304.195 198.742L304.148 199.07L303.695 198.599L302.872 197.741Z" fill="#EFC8C4"/>
<path d="M303.694 198.599C303.721 198.564 303.755 198.536 303.793 198.516C303.815 198.502 303.841 198.494 303.868 198.494C303.894 198.494 303.92 198.502 303.943 198.516C303.965 198.542 303.983 198.571 303.997 198.602C304.018 198.637 304.047 198.667 304.081 198.69C304.115 198.712 304.154 198.727 304.195 198.732L304.147 199.051L303.694 198.599Z" fill="#727A9C"/>
<path d="M300.095 192.126C300.095 192.126 305.632 192.094 304.329 194.45C303.025 196.807 300.988 197.09 300.988 197.09L300.095 192.126Z" fill="#FFD7CE"/>
</g>
<defs>
<linearGradient id="paint0_linear_3184_258613" x1="65.0182" y1="195.294" x2="346.419" y2="195.294" gradientUnits="userSpaceOnUse">
<stop stop-color="white"/>
<stop offset="1" stop-color="white"/>
</linearGradient>
<linearGradient id="paint1_linear_3184_258613" x1="65.0182" y1="187.678" x2="346.567" y2="187.678" gradientUnits="userSpaceOnUse">
<stop stop-color="white"/>
<stop offset="1" stop-color="white"/>
</linearGradient>
<linearGradient id="paint2_linear_3184_258613" x1="52.8879" y1="318.964" x2="52.8879" y2="132.329" gradientUnits="userSpaceOnUse">
<stop stop-color="#808080" stop-opacity="0.25"/>
<stop offset="0.54" stop-color="#808080" stop-opacity="0.12"/>
<stop offset="1" stop-color="#808080" stop-opacity="0.1"/>
</linearGradient>
<clipPath id="clip0_3184_258613">
<rect width="385" height="321" fill="white"/>
</clipPath>
</defs>
</svg>
