<svg width="20" height="21" viewBox="0 0 20 21" fill="none" xmlns="http://www.w3.org/2000/svg">
<path d="M9.99199 2.27441C5.39199 2.27441 1.66699 6.00775 1.66699 10.6077C1.66699 15.2077 5.39199 18.9411 9.99199 18.9411C14.6003 18.9411 18.3337 15.2077 18.3337 10.6077C18.3337 6.00775 14.6003 2.27441 9.99199 2.27441ZM13.3337 13.9411C13.2566 14.0183 13.165 14.0796 13.0642 14.1214C12.9634 14.1633 12.8553 14.1848 12.7462 14.1848C12.637 14.1848 12.529 14.1633 12.4281 14.1214C12.3273 14.0796 12.2358 14.0183 12.1587 13.9411L9.41699 11.1994C9.33825 11.1222 9.27561 11.0302 9.2327 10.9286C9.18978 10.8271 9.16745 10.718 9.16699 10.6077V7.27441C9.16699 6.81608 9.54199 6.44108 10.0003 6.44108C10.4587 6.44108 10.8337 6.81608 10.8337 7.27441V10.2661L13.3337 12.7661C13.6587 13.0911 13.6587 13.6161 13.3337 13.9411Z" fill="#858F9B"/>
</svg>
