<svg width="64" height="56" viewBox="0 0 64 56" fill="none" xmlns="http://www.w3.org/2000/svg">
<rect width="64" height="56" fill="#161B22"/>
<path d="M36.0773 14H19.7367C16.388 14 12.8083 16.2724 12 19.5144L23.3926 19.5405L17.6647 41.1166H21.0636C21.9917 38.184 24.2859 35.9247 27.3536 35.3517C27.6787 35.2875 28.0092 35.2546 28.3406 35.2536H30.0618L34.1055 19.4251H34.7047L38.0273 19.388C38.4448 19.3854 38.8602 19.3275 39.2626 19.2159C40.3826 18.8977 41.4363 18.3812 42.3739 17.6908C43.5903 16.7272 44.5226 15.4517 45.0711 14H36.0773Z" fill="white"/>
<path d="M45.5315 14.0176C45.5315 14.0176 44.8386 15.9196 43.673 17.0874C41.3919 19.3686 39.0453 19.7237 39.0453 19.7237C39.4173 20.05 39.705 20.4612 39.8841 20.9224C40.0631 21.3837 40.1281 21.8813 40.0737 22.3731L37.274 33.6088C37.0431 34.4673 35.5899 35.6285 34.5746 35.6024H30.5984L28.3172 35.6242C25.2147 35.6242 22.2167 38.5175 21.4629 41.1582H29.3935L40.3613 41.0906C43.8473 40.8248 46.6034 38.2103 47.4466 35.585L50.5404 22.7936C50.7583 21.6693 50.6711 18.6539 48.7233 16.3946C46.989 14.3662 45.5315 14.0176 45.5315 14.0176Z" fill="white"/>
</svg>
