<svg width="20" height="21" viewBox="0 0 20 21" fill="none" xmlns="http://www.w3.org/2000/svg">
<path d="M14.9998 8.94058C14.9998 8.71957 14.912 8.50761 14.7557 8.35133C14.5994 8.19505 14.3875 8.10725 14.1665 8.10725H4.50812L6.42479 6.19892C6.58171 6.042 6.66987 5.82917 6.66987 5.60725C6.66987 5.38533 6.58171 5.1725 6.42479 5.01558C6.26787 4.85866 6.05504 4.77051 5.83312 4.77051C5.61121 4.77051 5.39838 4.85866 5.24146 5.01558L1.90812 8.34892C1.79249 8.4661 1.71416 8.61492 1.68302 8.77657C1.65187 8.93823 1.66931 9.10549 1.73312 9.25725C1.79564 9.40943 1.90181 9.53971 2.03824 9.63165C2.17467 9.72359 2.33527 9.7731 2.49979 9.77392H14.1665C14.3875 9.77392 14.5994 9.68612 14.7557 9.52984C14.912 9.37356 14.9998 9.1616 14.9998 8.94058ZM18.2665 11.9573C18.2039 11.8051 18.0978 11.6748 17.9613 11.5829C17.8249 11.4909 17.6643 11.4414 17.4998 11.4406H5.83312C5.61211 11.4406 5.40015 11.5284 5.24387 11.6847C5.08759 11.8409 4.99979 12.0529 4.99979 12.2739C4.99979 12.4949 5.08759 12.7069 5.24387 12.8632C5.40015 13.0195 5.61211 13.1073 5.83312 13.1073H15.4915L13.5748 15.0156C13.4967 15.0931 13.4347 15.1852 13.3924 15.2868C13.3501 15.3883 13.3283 15.4972 13.3283 15.6073C13.3283 15.7173 13.3501 15.8262 13.3924 15.9277C13.4347 16.0293 13.4967 16.1214 13.5748 16.1989C13.6523 16.277 13.7444 16.339 13.846 16.3813C13.9475 16.4236 14.0564 16.4454 14.1665 16.4454C14.2765 16.4454 14.3854 16.4236 14.4869 16.3813C14.5885 16.339 14.6807 16.277 14.7581 16.1989L18.0915 12.8656C18.2071 12.7484 18.2854 12.5996 18.3166 12.4379C18.3477 12.2763 18.3303 12.109 18.2665 11.9573Z" fill="#1A6DE3"/>
</svg>
