<svg width="156" height="48" viewBox="0 0 156 48" fill="none" xmlns="http://www.w3.org/2000/svg">
<path d="M69.3449 26.3997H65.4736V24.4414H75.2913V26.4083H71.4674V38.0654H69.3449V26.3997Z" fill="white"/>
<path d="M83.2343 24.2861C87.775 24.2861 89.8445 27.651 89.9003 31.0533C89.9588 34.5193 87.906 38.0545 83.2343 38.0545H78.2139V24.2861H83.2343ZM80.3113 35.9287H83.2343C86.4836 35.9287 87.8503 33.4506 87.7945 31.0187C87.7359 28.7081 86.3497 26.3772 83.2343 26.3772H80.3113V35.9287Z" fill="white"/>
<path d="M95.0365 33.7723C95.2066 35.2511 96.3529 36.1869 98.0627 36.1869C99.0221 36.1869 100.168 35.8374 100.751 35.1558L102.009 36.4209C101.053 37.53 99.4544 38.0556 98.0264 38.0556C94.9807 38.0556 93.0283 36.0512 93.0283 32.9752C93.0283 30.058 95.0002 27.9756 97.8953 27.9756C100.882 27.9756 102.916 29.8818 102.556 33.7723H95.0365ZM100.693 32.0798C100.562 30.5433 99.5298 29.7692 97.9511 29.7692C96.5231 29.7692 95.3768 30.549 95.0755 32.0798H100.693Z" fill="white"/>
<path d="M112.495 38.0545V32.9163C112.495 31.2613 111.592 30.1522 109.985 30.1522C108.379 30.1522 107.394 31.4577 107.394 33.0405V38.0632H105.467V28.4395H107.232L107.344 29.8403C107.722 29.3607 108.198 28.974 108.737 28.7083C109.277 28.4425 109.867 28.3044 110.465 28.3037C112.696 28.3037 114.448 29.9385 114.448 32.8961V38.0545H112.495Z" fill="white"/>
<path d="M121.177 25.5752V28.3595H123.883V30.0924H121.158V34.6675C121.158 35.6784 121.59 36.2416 122.494 36.2416C122.908 36.2332 123.314 36.1201 123.676 35.9123L124.234 37.625C123.651 37.9053 123.017 38.0511 122.374 38.0525C120.346 38.1103 119.217 36.9434 119.217 34.6675V30.0896H117.432V28.3566H119.217V25.786L121.177 25.5752Z" fill="white"/>
<path d="M134.086 28.1942H135.965V37.789H134.125L134.03 36.2322C133.43 37.4771 131.963 38.0432 130.836 38.0432C128.131 38.0432 126.095 36.2525 126.095 32.9829C126.095 29.7712 128.237 27.9805 130.886 27.9805C132.222 27.9805 133.461 28.6246 134.044 29.7134L134.086 28.1942ZM128.014 32.9945C128.014 34.9585 129.366 36.1716 131.02 36.1716C135.023 36.1716 135.023 29.8174 131.02 29.8174C129.366 29.8232 128.014 31.0478 128.014 32.9945Z" fill="white"/>
<path d="M141.13 24.4414V38.0451H139.194V24.4414H141.13Z" fill="white"/>
<path d="M42.4641 4.7998H21.5458C17.2589 4.7998 12.6764 7.81227 11.6416 12.11L26.2259 12.1447L18.8933 40.7472H23.2443C24.4325 36.8596 27.3694 33.8644 31.2965 33.1048C31.7127 33.0197 32.1358 32.9762 32.56 32.9748H34.7634L39.94 11.9916H40.707L44.9604 11.9425C45.4949 11.939 46.0267 11.8623 46.5418 11.7143C47.9755 11.2925 49.3245 10.6077 50.5247 9.69253C52.082 8.4152 53.2753 6.7242 53.9776 4.7998L42.4641 4.7998Z" fill="white"/>
<path d="M54.5633 4.81836C54.5633 4.81836 53.6764 7.33982 52.1842 8.88793C49.264 11.9119 46.2601 12.3827 46.2601 12.3827C46.7363 12.8152 47.1046 13.3604 47.3338 13.9718C47.563 14.5833 47.6463 15.243 47.5766 15.8949L43.9926 30.7897C43.6969 31.9276 41.8366 33.4671 40.5369 33.4324H35.4467L32.5265 33.4613C28.5548 33.4613 24.717 37.2969 23.752 40.7975H33.9043L47.9448 40.708C52.4073 40.3556 55.9356 36.8897 57.015 33.4093L60.9755 16.4523C61.2544 14.962 61.1429 10.9646 58.6494 7.96946C56.4292 5.28048 54.5633 4.81836 54.5633 4.81836Z" fill="white"/>
</svg>
