<svg width="16" height="17" viewBox="0 0 16 17" fill="none" xmlns="http://www.w3.org/2000/svg">
<path d="M13.8333 0.274414H2.16667C1.72464 0.274414 1.30072 0.450009 0.988155 0.762569C0.675595 1.07513 0.5 1.49905 0.5 1.94108V12.7744C0.5 13.2164 0.675595 13.6404 0.988155 13.9529C1.30072 14.2655 1.72464 14.4411 2.16667 14.4411H5.5L8 16.9411L10.5 14.4411H13.8333C14.2754 14.4411 14.6993 14.2655 15.0118 13.9529C15.3244 13.6404 15.5 13.2164 15.5 12.7744V1.94108C15.5 1.49905 15.3244 1.07513 15.0118 0.762569C14.6993 0.450009 14.2754 0.274414 13.8333 0.274414ZM8 2.77441C9.43917 2.77441 10.5 3.83441 10.5 5.27441C10.5 6.71441 9.43917 7.77441 8 7.77441C6.56167 7.77441 5.5 6.71441 5.5 5.27441C5.5 3.83441 6.56167 2.77441 8 2.77441ZM3.98083 11.9411C4.44583 10.5052 6.06083 9.44108 8 9.44108C9.93917 9.44108 11.555 10.5052 12.0192 11.9411H3.98083Z" fill="#858F9B"/>
</svg>
